<svg width="64" height="64" viewBox="0 0 64 64" fill="none" xmlns="http://www.w3.org/2000/svg">
<circle cx="32" cy="32" r="30" fill="#186234"/>
<path d="M38.1029 26.2386C38.3738 27.0214 39.228 27.4365 40.0109 27.1656C40.7938 26.8947 41.2088 26.0404 40.9379 25.2575L38.1029 26.2386ZM35.2004 22.4888L35.2663 20.9902C35.2443 20.9893 35.2224 20.9888 35.2004 20.9888L35.2004 22.4888ZM28.8004 32.2666V33.7666V32.2666ZM35.2004 42.0443L35.2004 43.5443L35.2004 42.0443ZM28.8004 42.0443L28.7345 43.5429C28.7564 43.5439 28.7784 43.5443 28.8004 43.5443V42.0443ZM25.8979 38.2946C25.627 37.5117 24.7728 37.0966 23.9899 37.3675C23.207 37.6385 22.792 38.4927 23.0629 39.2756L25.8979 38.2946ZM33.5004 17.5999C33.5004 16.7715 32.8288 16.0999 32.0004 16.0999C31.172 16.0999 30.5004 16.7715 30.5004 17.5999H33.5004ZM30.5004 22.4888C30.5004 23.3172 31.172 23.9888 32.0004 23.9888C32.8288 23.9888 33.5004 23.3172 33.5004 22.4888H30.5004ZM33.5004 42.0443C33.5004 41.2159 32.8288 40.5443 32.0004 40.5443C31.172 40.5443 30.5004 41.2159 30.5004 42.0443H33.5004ZM30.5004 46.9332C30.5004 47.7617 31.172 48.4332 32.0004 48.4332C32.8288 48.4332 33.5004 47.7617 33.5004 46.9332H30.5004ZM40.9379 25.2575C40.5231 24.0587 39.7639 23.0093 38.7538 22.2472L36.947 24.6421C37.4767 25.0417 37.8808 25.5967 38.1029 26.2386L40.9379 25.2575ZM38.7538 22.2472C37.7434 21.4848 36.5288 21.0458 35.2663 20.9902L35.1345 23.9873C35.7864 24.016 36.4177 24.2427 36.947 24.6421L38.7538 22.2472ZM35.2004 20.9888H28.8004V23.9888H35.2004V20.9888ZM28.8004 20.9888C27.1205 20.9888 25.5152 21.6687 24.3359 22.8698L26.4766 24.9716C27.0977 24.339 27.9341 23.9888 28.8004 23.9888V20.9888ZM24.3359 22.8698C23.1576 24.07 22.5004 25.692 22.5004 27.3777H25.5004C25.5004 26.4701 25.8546 25.6051 26.4766 24.9716L24.3359 22.8698ZM22.5004 27.3777C22.5004 29.0633 23.1576 30.6854 24.3359 31.8855L26.4766 29.7838C25.8546 29.1502 25.5004 28.2853 25.5004 27.3777H22.5004ZM24.3359 31.8855C25.5152 33.0866 27.1206 33.7666 28.8004 33.7666L28.8004 30.7666C27.9341 30.7666 27.0977 30.4163 26.4766 29.7838L24.3359 31.8855ZM28.8004 33.7666H35.2004V30.7666H28.8004V33.7666ZM35.2004 33.7666C36.0666 33.7666 36.9031 34.1168 37.5242 34.7494L39.6648 32.6476C38.4856 31.4465 36.8802 30.7666 35.2004 30.7666V33.7666ZM37.5242 34.7494C38.1461 35.3829 38.5004 36.2479 38.5004 37.1555H41.5004C41.5004 35.4698 40.8432 33.8478 39.6648 32.6476L37.5242 34.7494ZM38.5004 37.1555C38.5004 38.063 38.1461 38.928 37.5242 39.5615L39.6648 41.6633C40.8432 40.4631 41.5004 38.8411 41.5004 37.1555H38.5004ZM37.5242 39.5615C36.9031 40.1941 36.0666 40.5443 35.2004 40.5443L35.2004 43.5443C36.8802 43.5443 38.4856 42.8644 39.6648 41.6633L37.5242 39.5615ZM35.2004 40.5443H28.8004V43.5443H35.2004V40.5443ZM28.8663 40.5458C28.2144 40.5171 27.5831 40.2904 27.0538 39.8911L25.2469 42.2859C26.2574 43.0483 27.4719 43.4874 28.7345 43.5429L28.8663 40.5458ZM27.0538 39.8911C26.5241 39.4915 26.12 38.9364 25.8979 38.2946L23.0629 39.2756C23.4777 40.4744 24.2368 41.5238 25.2469 42.2859L27.0538 39.8911ZM30.5004 17.5999V22.4888H33.5004V17.5999H30.5004ZM30.5004 42.0443V46.9332H33.5004V42.0443H30.5004ZM56.1004 31.9999C56.1004 45.31 45.3104 56.0999 32.0004 56.0999V59.0999C46.9673 59.0999 59.1004 46.9668 59.1004 31.9999H56.1004ZM32.0004 56.0999C18.6903 56.0999 7.90039 45.31 7.90039 31.9999H4.90039C4.90039 46.9668 17.0335 59.0999 32.0004 59.0999V56.0999ZM7.90039 31.9999C7.90039 18.6898 18.6903 7.8999 32.0004 7.8999V4.8999C17.0335 4.8999 4.90039 17.033 4.90039 31.9999H7.90039ZM32.0004 7.8999C45.3104 7.8999 56.1004 18.6898 56.1004 31.9999H59.1004C59.1004 17.033 46.9673 4.8999 32.0004 4.8999V7.8999Z" fill="#FFCE46"/>
</svg>
