<svg width="21" height="21" viewBox="0 0 21 21" fill="none" xmlns="http://www.w3.org/2000/svg">
<path fill-rule="evenodd" clip-rule="evenodd" d="M10.667 0.666748C16.1899 0.666748 20.667 5.14386 20.667 10.6667C20.667 16.1896 16.1899 20.6667 10.667 20.6667C5.14416 20.6667 0.666992 16.1896 0.666992 10.6667C0.666992 5.14386 5.14416 0.666748 10.667 0.666748ZM11.6692 9.66675H9.66918V15.6667H11.6692V9.66675ZM10.6772 5.41675C9.94806 5.41675 9.41918 5.9427 9.41918 6.65288C9.41918 7.39179 9.93412 7.91675 10.6772 7.91675C11.3913 7.91675 11.9192 7.39179 11.9192 6.66675C11.9192 5.9427 11.3913 5.41675 10.6772 5.41675Z" fill="#EBF1FF"/>
</svg>
