<svg width="32" height="32" viewBox="0 0 32 32" fill="none" xmlns="http://www.w3.org/2000/svg">
<path fill-rule="evenodd" clip-rule="evenodd" d="M15.9951 0.10596C18.387 0.104601 20.7483 0.643105 22.9031 1.68134C25.0581 2.71961 26.9509 4.2309 28.4402 6.10251C29.9298 7.97413 30.9776 10.1578 31.5058 12.4908C32.0338 14.8237 32.0286 17.2458 31.4903 19.5765C30.952 21.9071 29.8946 24.0862 28.397 25.9513C26.8994 27.8165 25 29.3193 22.8406 30.3484C20.6812 31.3772 18.3174 31.9054 15.9254 31.8935C13.6605 31.8823 11.4256 31.3872 9.37003 30.443L1.44779 31.8755C1.04302 31.9486 0.630152 31.7987 0.366719 31.4828C0.103283 31.1669 0.0299302 30.7337 0.174649 30.3488L2.44717 24.3027C1.05209 22.0253 0.251587 19.4302 0.124181 16.7563C-0.0126482 13.8845 0.632012 11.0295 1.9895 8.49518C3.34699 5.96087 5.36646 3.84222 7.83284 2.36489C10.2991 0.887603 13.1202 0.106918 15.9951 0.10596ZM11.4284 15.9998C11.4284 17.2621 10.405 18.2855 9.14265 18.2855C7.88029 18.2855 6.85693 17.2621 6.85693 15.9998C6.85693 14.7374 7.88029 13.7141 9.14265 13.7141C10.405 13.7141 11.4284 14.7374 11.4284 15.9998ZM15.9998 18.2855C17.2621 18.2855 18.2855 17.2621 18.2855 15.9998C18.2855 14.7374 17.2621 13.7141 15.9998 13.7141C14.7374 13.7141 13.7141 14.7374 13.7141 15.9998C13.7141 17.2621 14.7374 18.2855 15.9998 18.2855ZM22.8569 18.2855C24.1193 18.2855 25.1426 17.2621 25.1426 15.9998C25.1426 14.7374 24.1193 13.7141 22.8569 13.7141C21.5946 13.7141 20.5712 14.7374 20.5712 15.9998C20.5712 17.2621 21.5946 18.2855 22.8569 18.2855Z" fill="#EBF1FF" fill-opacity="0.8"/>
</svg>
