<svg width="64" height="64" viewBox="0 0 64 64" fill="none" xmlns="http://www.w3.org/2000/svg">
<circle cx="32" cy="32" r="30" fill="#203560"/>
<path d="M40.0006 23.1705C37.7755 21.159 34.8816 20.0471 31.882 20.0511M31.882 20.0511C30.2871 20.0522 28.7079 20.3674 27.2348 20.9787C25.7616 21.5901 24.4233 22.4856 23.2962 23.6142C22.1692 24.7427 21.2754 26.0822 20.6661 27.5562C20.0567 29.0302 19.7436 30.6097 19.7446 32.2047C19.7446 38.9175 25.1773 44.3583 31.882 44.3583M31.882 20.0511L31.8841 15.9999M31.882 44.3583C34.8778 44.3625 37.7682 43.2537 39.9925 41.247M31.882 44.3583L31.8841 48.4095M57.6004 31.9999C57.6004 46.1384 46.1389 57.5999 32.0004 57.5999C17.8619 57.5999 6.40039 46.1384 6.40039 31.9999C6.40039 17.8614 17.8619 6.3999 32.0004 6.3999C46.1389 6.3999 57.6004 17.8614 57.6004 31.9999Z" stroke="#FFCE46" stroke-width="3" stroke-linecap="round" stroke-linejoin="round"/>
</svg>
