<svg width="92" height="48" fill="none" xmlns="http://www.w3.org/2000/svg">
<g clip-path="url(#clip0_820_70)">
<rect width="92" height="48" fill="white"/>
<path d="M-0.0273438 -0.463135H91.9727V48.5369H-0.0273438V-0.463135Z" fill="url(#paint0_linear_820_70)"/>
<path d="M-16 17.9698L23.1373 -23.9998L33.9727 -13.8956L-5.16464 28.074L-16 17.9698Z" fill="url(#paint1_linear_820_70)"/>
<rect x="-4" y="45.7808" width="77.6378" height="14.8155" transform="rotate(-47 -4 45.7808)" fill="url(#paint2_linear_820_70)"/>
<rect x="29" y="55.0691" width="83.5016" height="14.8155" transform="rotate(-47 29 55.0691)" fill="url(#paint3_linear_820_70)"/>
<rect x="51.9727" y="71.606" width="83.5016" height="14.8155" transform="rotate(-47 51.9727 71.606)" fill="url(#paint4_linear_820_70)"/>
</g>
<defs>
<linearGradient id="paint0_linear_820_70" x1="92" y1="2.05033e-06" x2="0.500002" y2="48.5" gradientUnits="userSpaceOnUse">
<stop offset="0.05" stop-color="#FFCE46"/>
<stop offset="1" stop-color="#FFC239"/>
</linearGradient>
<linearGradient id="paint1_linear_820_70" x1="28.555" y1="-18.9478" x2="-10.5823" y2="23.0218" gradientUnits="userSpaceOnUse">
<stop stop-color="#F0A027"/>
<stop offset="1" stop-color="#FFCE46"/>
</linearGradient>
<linearGradient id="paint2_linear_820_70" x1="73.6378" y1="53.1885" x2="-4" y2="53.1885" gradientUnits="userSpaceOnUse">
<stop stop-color="#F0A027"/>
<stop offset="1" stop-color="#FFCE46"/>
</linearGradient>
<linearGradient id="paint3_linear_820_70" x1="112.502" y1="62.4768" x2="29" y2="62.4768" gradientUnits="userSpaceOnUse">
<stop stop-color="#F0A027"/>
<stop offset="1" stop-color="#FFCE46"/>
</linearGradient>
<linearGradient id="paint4_linear_820_70" x1="135.474" y1="79.0137" x2="51.9727" y2="79.0137" gradientUnits="userSpaceOnUse">
<stop stop-color="#F0A027"/>
<stop offset="1" stop-color="#FFCE46"/>
</linearGradient>
<clipPath id="clip0_820_70">
<rect width="92" height="48" fill="white"/>
</clipPath>
</defs>
</svg>
